<svg aria-hidden="true" width="21" height="21" viewBox="0 0 21 21" fill="none" xmlns="http://www.w3.org/2000/svg">
<path d="M2.625 3.5H4.375L6.475 14.175C6.53636 14.4759 6.70131 14.7458 6.94112 14.9377C7.18094 15.1295 7.48045 15.2312 7.7875 15.225H15.3125C15.6196 15.2312 15.9191 15.1295 16.1589 14.9377C16.3987 14.7458 16.5636 14.4759 16.625 14.175L19.25 7H5.25" stroke="#17191D" stroke-width="1.575" stroke-linecap="round" stroke-linejoin="round"/>
<path d="M8.3123 18.6375C8.94053 18.6375 9.44981 18.1282 9.44981 17.5C9.44981 16.8718 8.94053 16.3625 8.3123 16.3625C7.68408 16.3625 7.1748 16.8718 7.1748 17.5C7.1748 18.1282 7.68408 18.6375 8.3123 18.6375Z" fill="#17191D"/>
<path d="M15.7498 18.6375C16.378 18.6375 16.8873 18.1282 16.8873 17.5C16.8873 16.8718 16.378 16.3625 15.7498 16.3625C15.1216 16.3625 14.6123 16.8718 14.6123 17.5C14.6123 18.1282 15.1216 18.6375 15.7498 18.6375Z" fill="#17191D"/>
</svg>
